<?xml version="1.0" standalone="no"?>
<svg version="1.1" xmlns="http://www.w3.org/2000/svg" xmlns:xlink="http://www.w3.org/1999/xlink" xmlns:inkscape="http://www.inkscape.org/namespaces/inkscape" fill="none" stroke="#000" viewBox="0 0 100 100" height="50%" width="50%" id="svg"><g><circle stroke="aquamarine" fill="#232323" stroke-width="Infinity" cx="50" cy="50" r="45"/><circle stroke="aquamarine" fill="#232323" stroke-width="0.500" cx="50" cy="50" r="43.500"/><circle stroke="aquamarine" fill="#232323" stroke-width="0.250" cx="50" cy="50" r="42"/><line stroke="aquamarine" stroke-width="0.500" x1="50" y1="50" x2="95" y2="50"/><line stroke="aquamarine" stroke-width="0.500" x1="50" y1="50" x2="91.110" y2="68.303"/><line stroke="aquamarine" stroke-width="0.500" x1="50" y1="50" x2="80.111" y2="83.442"/><line stroke="aquamarine" stroke-width="0.500" x1="50" y1="50" x2="63.906" y2="92.798"/><line stroke="aquamarine" stroke-width="0.500" x1="50" y1="50" x2="45.296" y2="94.753"/><line stroke="aquamarine" stroke-width="0.500" x1="50" y1="50" x2="27.500" y2="88.971"/><line stroke="aquamarine" stroke-width="0.500" x1="50" y1="50" x2="13.594" y2="76.450"/><line stroke="aquamarine" stroke-width="0.500" x1="50" y1="50" x2="5.983" y2="59.356"/><line stroke="aquamarine" stroke-width="0.500" x1="50" y1="50" x2="5.983" y2="40.644"/><line stroke="aquamarine" stroke-width="0.500" x1="50" y1="50" x2="13.594" y2="23.550"/><line stroke="aquamarine" stroke-width="0.500" x1="50" y1="50" x2="27.500" y2="11.029"/><line stroke="aquamarine" stroke-width="0.500" x1="50" y1="50" x2="45.296" y2="5.247"/><line stroke="aquamarine" stroke-width="0.500" x1="50" y1="50" x2="63.906" y2="7.202"/><line stroke="aquamarine" stroke-width="0.500" x1="50" y1="50" x2="80.111" y2="16.558"/><line stroke="aquamarine" stroke-width="0.500" x1="50" y1="50" x2="91.110" y2="31.697"/><circle stroke="aquamarine" fill="#232323" stroke-width="Infinity" cx="50" cy="50" r="36"/><circle stroke="aquamarine" fill="#232323" stroke-width="0.400" cx="50" cy="50" r="34.800"/><circle stroke="aquamarine" fill="#232323" stroke-width="0.200" cx="50" cy="50" r="33.600"/><line stroke="aquamarine" stroke-width="0.400" x1="21.923" y1="29.440" x2="69.610" y2="78.749"/><line stroke="aquamarine" stroke-width="0.400" x1="50" y1="50" x2="69.610" y2="78.749"/><line stroke="aquamarine" stroke-width="0.400" x1="69.610" y1="78.749" x2="21.923" y2="29.440"/><line stroke="aquamarine" stroke-width="0.400" x1="50" y1="50" x2="21.923" y2="29.440"/><circle stroke="aquamarine" fill="#232323" stroke-width="Infinity" cx="69.610" cy="78.749" r="14.400"/><circle stroke="aquamarine" fill="#232323" stroke-width="0.400" cx="69.610" cy="78.749" r="13.920"/><line stroke="aquamarine" stroke-width="0.400" x1="69.610" y1="78.749" x2="84.010" y2="78.749"/><line stroke="aquamarine" stroke-width="0.400" x1="69.610" y1="78.749" x2="81.260" y2="87.213"/><line stroke="aquamarine" stroke-width="0.400" x1="69.610" y1="78.749" x2="74.060" y2="92.444"/><line stroke="aquamarine" stroke-width="0.400" x1="69.610" y1="78.749" x2="65.160" y2="92.444"/><line stroke="aquamarine" stroke-width="0.400" x1="69.610" y1="78.749" x2="57.960" y2="87.213"/><line stroke="aquamarine" stroke-width="0.400" x1="69.610" y1="78.749" x2="55.210" y2="78.749"/><line stroke="aquamarine" stroke-width="0.400" x1="69.610" y1="78.749" x2="57.960" y2="70.285"/><line stroke="aquamarine" stroke-width="0.400" x1="69.610" y1="78.749" x2="65.160" y2="65.054"/><line stroke="aquamarine" stroke-width="0.400" x1="69.610" y1="78.749" x2="74.060" y2="65.054"/><line stroke="aquamarine" stroke-width="0.400" x1="69.610" y1="78.749" x2="81.260" y2="70.285"/><circle stroke="aquamarine" fill="#232323" stroke-width="Infinity" cx="21.923" cy="29.440" r="14.400"/><line stroke="aquamarine" stroke-width="0.400" x1="23.128" y1="15.091" x2="21.768" y2="43.840"/><line stroke="aquamarine" stroke-width="0.400" x1="21.923" y1="29.440" x2="21.768" y2="43.840"/><line stroke="aquamarine" stroke-width="0.400" x1="21.768" y1="43.840" x2="23.128" y2="15.091"/><line stroke="aquamarine" stroke-width="0.400" x1="21.923" y1="29.440" x2="23.128" y2="15.091"/><circle stroke="aquamarine" fill="#232323" stroke-width="0.400" cx="21.768" cy="43.840" r="4.673"/><circle stroke="aquamarine" fill="#232323" stroke-width="0.400" cx="23.128" cy="15.091" r="4.673"/></g></svg>